<?xml version="1.0" standalone="no"?>
<!DOCTYPE svg PUBLIC "-//W3C//DTD SVG 20010904//EN"
 "http://www.w3.org/TR/2001/REC-SVG-20010904/DTD/svg10.dtd">
<svg version="1.0" xmlns="http://www.w3.org/2000/svg"
 width="512.000000pt" height="512.000000pt" viewBox="0 0 512.000000 512.000000"
 preserveAspectRatio="xMidYMid meet">
<metadata>
Created by potrace 1.14, written by Peter Selinger 2001-2017
</metadata>
<g transform="translate(0.000000,512.000000) scale(0.100000,-0.100000)"
fill="#000000" stroke="none">
<path d="M1620 4464 c-165 -44 -274 -179 -318 -394 -16 -76 -19 -127 -17 -255
2 -88 6 -180 9 -205 9 -57 53 -261 71 -321 l13 -46 -96 -27 c-394 -111 -658
-279 -758 -482 -37 -74 -39 -83 -39 -173 0 -76 5 -109 24 -161 58 -160 199
-300 406 -403 97 -48 144 -67 149 -59 2 4 18 45 36 92 18 47 38 99 45 115 37
91 40 80 -28 110 -243 107 -368 262 -294 363 49 65 146 133 280 195 70 33 285
105 337 113 l37 6 28 -78 c16 -44 45 -117 65 -163 l36 -85 -53 -122 c-175
-409 -273 -850 -269 -1214 2 -173 15 -240 69 -350 133 -271 466 -361 777 -211
81 40 201 114 198 123 -2 4 -42 63 -91 132 l-87 124 -80 -48 c-44 -26 -115
-58 -158 -70 -67 -20 -84 -22 -129 -12 -92 19 -141 70 -169 177 -13 48 -13
285 1 374 23 154 73 397 95 461 5 14 23 71 41 128 17 56 35 102 39 102 5 0 13
-12 19 -27 9 -25 40 -84 113 -213 188 -336 468 -711 717 -961 247 -247 448
-359 631 -353 186 6 329 117 393 306 31 89 35 106 44 194 31 305 -30 678 -175
1069 -57 153 -179 415 -194 415 -6 0 -264 -135 -275 -144 -1 -1 22 -52 52
-113 181 -375 277 -743 277 -1068 1 -189 -33 -310 -91 -335 -145 -59 -514 274
-865 780 -182 262 -299 466 -429 749 l-48 103 52 92 c28 50 89 148 135 218
l84 127 253 -4 c138 -3 266 -7 282 -9 17 -2 66 -7 110 -11 83 -7 95 -8 210
-25 39 -6 81 -13 95 -15 28 -3 63 -10 135 -25 28 -6 64 -13 80 -16 17 -4 86
-21 155 -40 430 -115 740 -303 766 -462 6 -38 4 -43 -39 -86 -25 -24 -73 -59
-107 -76 -73 -37 -231 -90 -267 -90 -24 0 -25 -2 -19 -43 25 -164 48 -277 58
-277 20 0 176 42 238 65 228 83 387 216 439 368 55 159 -3 341 -158 498 -92
92 -210 171 -377 250 -118 56 -380 151 -453 164 -19 3 -38 8 -43 11 -10 6 -81
22 -238 54 -96 19 -119 23 -243 40 -174 25 -361 41 -522 45 -64 1 -118 4 -120
7 -4 4 132 181 199 259 17 19 46 53 65 75 78 91 218 229 301 295 118 94 259
169 319 169 104 0 175 -90 174 -220 -1 -71 -32 -221 -62 -300 -14 -36 -16 -52
-7 -58 6 -5 69 -34 140 -66 105 -46 132 -54 142 -44 15 16 70 178 78 232 4 21
8 41 10 45 2 3 8 38 12 76 20 190 -2 308 -81 430 -95 149 -246 230 -419 224
-255 -9 -506 -182 -881 -609 -69 -78 -211 -259 -296 -378 -51 -70 -95 -130
-99 -135 -6 -7 -24 -10 -135 -21 -33 -4 -82 -9 -110 -13 -27 -3 -65 -6 -84 -7
l-35 -1 -28 105 c-48 182 -66 303 -64 435 3 152 20 227 61 271 31 32 34 33
101 30 110 -6 253 -68 354 -153 l38 -33 103 111 c57 61 106 115 107 120 4 10
-11 23 -107 97 -93 71 -249 142 -366 167 -64 14 -220 13 -275 -1z"/>
<path d="M2460 2863 c-85 -30 -143 -82 -186 -164 -26 -47 -29 -64 -28 -139 0
-69 5 -94 24 -135 31 -64 91 -124 155 -155 72 -34 198 -34 270 0 64 31 124 91
155 155 34 69 35 197 1 268 -29 63 -93 126 -156 156 -65 30 -172 37 -235 14z"/>
</g>
</svg>
